<svg width="500" height="500" viewBox="0 0 500 500" fill="none" xmlns="http://www.w3.org/2000/svg">
<path d="M250 427.56C357.083 427.56 443.89 422.492 443.89 416.24C443.89 409.988 357.083 404.92 250 404.92C142.918 404.92 56.1101 409.988 56.1101 416.24C56.1101 422.492 142.918 427.56 250 427.56Z" fill="#F5F5F5"/>
<path d="M332.47 391.23C332.47 391.23 327.47 380.43 333.17 369.77C338.87 359.11 340.47 356.61 336.87 354.43C333.27 352.25 331.6 363 331.6 363C329.809 358.164 329.623 352.88 331.07 347.93C333.58 340.22 335.16 327.67 331.73 326.32C328.3 324.97 331.08 341.98 328.1 347.78C326.583 343.712 325.605 339.462 325.19 335.14C324.78 328.95 325.42 319.06 322.71 316.53C320 314 318.27 315.74 320.93 329.41C322.529 337.571 323.412 345.856 323.57 354.17C323.57 354.17 317.7 336.25 313.75 335.73C309.8 335.21 309.81 341.01 313.19 346.04C316.57 351.07 323.08 360.09 324.14 364.73C324.14 364.73 317.69 351.25 311.89 355.38C306.09 359.51 316.94 367.66 321.78 370.6C326.62 373.54 329.98 391.99 329.98 391.99L332.47 391.23Z" fill="#66923F"/>
<path opacity="0.2" d="M332.47 391.23C332.47 391.23 327.47 380.43 333.17 369.77C338.87 359.11 340.47 356.61 336.87 354.43C333.27 352.25 331.6 363 331.6 363C329.809 358.164 329.623 352.88 331.07 347.93C333.58 340.22 335.16 327.67 331.73 326.32C328.3 324.97 331.08 341.98 328.1 347.78C326.583 343.712 325.605 339.462 325.19 335.14C324.78 328.95 325.42 319.06 322.71 316.53C320 314 318.27 315.74 320.93 329.41C322.529 337.571 323.412 345.856 323.57 354.17C323.57 354.17 317.7 336.25 313.75 335.73C309.8 335.21 309.81 341.01 313.19 346.04C316.57 351.07 323.08 360.09 324.14 364.73C324.14 364.73 317.69 351.25 311.89 355.38C306.09 359.51 316.94 367.66 321.78 370.6C326.62 373.54 329.98 391.99 329.98 391.99L332.47 391.23Z" fill="black"/>
<path d="M328.56 395.66C328.56 395.66 333.38 384.78 327.56 374.22C321.74 363.66 320.1 361.16 323.68 358.93C327.26 356.7 329.04 367.37 329.04 367.37C330.774 362.512 330.897 357.224 329.39 352.29C326.79 344.63 325.06 332.1 328.48 330.7C331.9 329.3 329.32 346.35 332.36 352.1C333.831 348.009 334.759 343.743 335.12 339.41C335.46 333.22 334.7 323.34 337.38 320.77C340.06 318.2 341.81 319.92 339.31 333.62C337.807 341.802 337.024 350.101 336.97 358.42C336.97 358.42 342.63 340.42 346.57 339.84C350.51 339.26 350.57 345.06 347.25 350.14C343.93 355.22 337.54 364.34 336.52 368.99C336.52 368.99 342.81 355.41 348.66 359.46C354.51 363.51 343.76 371.81 338.96 374.83C334.16 377.85 331.02 396.34 331.02 396.34L328.56 395.66Z" fill="#66923F"/>
<path d="M350.8 387.91H310.96L314.19 416.42H347.58L350.8 387.91Z" fill="#263238"/>
<path opacity="0.2" d="M429.05 104.4H218.49C217.12 104.4 216.01 105.51 216.01 106.88V293.9C216.01 295.27 217.12 296.38 218.49 296.38H429.05C430.42 296.38 431.53 295.27 431.53 293.9V106.88C431.53 105.51 430.42 104.4 429.05 104.4Z" fill="black"/>
<path d="M420.9 100.85H210.34C208.97 100.85 207.86 101.96 207.86 103.33V290.35C207.86 291.72 208.97 292.83 210.34 292.83H420.9C422.27 292.83 423.38 291.72 423.38 290.35V103.33C423.38 101.96 422.27 100.85 420.9 100.85Z" fill="#66923F"/>
<path opacity="0.6" d="M207.86 118V290.36C207.809 290.952 207.988 291.54 208.361 292.002C208.734 292.465 209.271 292.765 209.86 292.84H421.32C421.92 292.779 422.472 292.485 422.857 292.021C423.242 291.557 423.43 290.961 423.38 290.36V118H207.86Z" fill="white"/>
<path d="M420.82 128.11H210.41V280.38H420.82V128.11Z" fill="white"/>
<path opacity="0.6" d="M416.34 112.71C418.085 112.71 419.5 111.004 419.5 108.9C419.5 106.796 418.085 105.09 416.34 105.09C414.595 105.09 413.18 106.796 413.18 108.9C413.18 111.004 414.595 112.71 416.34 112.71Z" fill="white"/>
<path opacity="0.6" d="M405.99 112.71C407.735 112.71 409.15 111.004 409.15 108.9C409.15 106.796 407.735 105.09 405.99 105.09C404.245 105.09 402.83 106.796 402.83 108.9C402.83 111.004 404.245 112.71 405.99 112.71Z" fill="white"/>
<path opacity="0.6" d="M398.79 108.9C398.79 111 397.38 112.7 395.63 112.7C393.88 112.7 392.48 111 392.48 108.9C392.48 106.8 393.89 105.09 395.63 105.09C397.37 105.09 398.79 106.79 398.79 108.9Z" fill="white"/>
<path d="M255.24 145.89V185.16L245.14 197.34H222.77V145.89H255.24Z" fill="#66923F"/>
<path opacity="0.7" d="M255.24 145.89V185.16L245.14 197.34H222.77V145.89H255.24Z" fill="white"/>
<path opacity="0.3" d="M255.24 185.16L245.14 197.34V185.16H255.24Z" fill="#66923F"/>
<path opacity="0.3" d="M250.21 153.31H227.81V154.78H250.21V153.31Z" fill="#66923F"/>
<path opacity="0.3" d="M250.21 158.89H227.81V160.36H250.21V158.89Z" fill="#66923F"/>
<path opacity="0.3" d="M250.21 164.48H227.81V165.96H250.21V164.48Z" fill="#66923F"/>
<path opacity="0.3" d="M250.21 170.07H227.81V171.54H250.21V170.07Z" fill="#66923F"/>
<path opacity="0.3" d="M244.42 175.66H227.81V177.14H244.42V175.66Z" fill="#66923F"/>
<path d="M306.74 145.89V185.16L296.64 197.34H274.27V145.89H306.74Z" fill="#66923F"/>
<path opacity="0.7" d="M306.74 145.89V185.16L296.64 197.34H274.27V145.89H306.74Z" fill="white"/>
<path opacity="0.3" d="M306.74 185.16L296.64 197.34V185.16H306.74Z" fill="#66923F"/>
<path opacity="0.3" d="M301.7 153.31H279.3V154.78H301.7V153.31Z" fill="#66923F"/>
<path opacity="0.3" d="M301.7 158.89H279.3V160.36H301.7V158.89Z" fill="#66923F"/>
<path opacity="0.3" d="M301.7 164.48H279.3V165.96H301.7V164.48Z" fill="#66923F"/>
<path opacity="0.3" d="M301.7 170.07H279.3V171.54H301.7V170.07Z" fill="#66923F"/>
<path opacity="0.3" d="M295.91 175.66H279.3V177.14H295.91V175.66Z" fill="#66923F"/>
<path d="M358.24 145.89V185.16L348.14 197.34H325.77V145.89H358.24Z" fill="#66923F"/>
<path opacity="0.7" d="M358.24 145.89V185.16L348.14 197.34H325.77V145.89H358.24Z" fill="white"/>
<path opacity="0.3" d="M358.24 185.16L348.14 197.34V185.16H358.24Z" fill="#66923F"/>
<path opacity="0.3" d="M353.2 153.31H330.8V154.78H353.2V153.31Z" fill="#66923F"/>
<path opacity="0.3" d="M353.2 158.89H330.8V160.36H353.2V158.89Z" fill="#66923F"/>
<path opacity="0.3" d="M353.2 164.48H330.8V165.96H353.2V164.48Z" fill="#66923F"/>
<path opacity="0.3" d="M353.2 170.07H330.8V171.54H353.2V170.07Z" fill="#66923F"/>
<path opacity="0.3" d="M347.41 175.66H330.8V177.14H347.41V175.66Z" fill="#66923F"/>
<path d="M409.74 145.89V185.16L399.63 197.34H377.27V145.89H409.74Z" fill="#66923F"/>
<path opacity="0.7" d="M409.74 145.89V185.16L399.63 197.34H377.27V145.89H409.74Z" fill="white"/>
<path opacity="0.3" d="M409.74 185.16L399.63 197.34V185.16H409.74Z" fill="#66923F"/>
<path opacity="0.3" d="M404.7 153.31H382.3V154.78H404.7V153.31Z" fill="#66923F"/>
<path opacity="0.3" d="M404.7 158.89H382.3V160.36H404.7V158.89Z" fill="#66923F"/>
<path opacity="0.3" d="M404.7 164.48H382.3V165.96H404.7V164.48Z" fill="#66923F"/>
<path opacity="0.3" d="M404.7 170.07H382.3V171.54H404.7V170.07Z" fill="#66923F"/>
<path opacity="0.3" d="M398.91 175.66H382.3V177.14H398.91V175.66Z" fill="#66923F"/>
<path d="M255.24 213.89V253.16L245.14 265.34H222.77V213.89H255.24Z" fill="#66923F"/>
<path opacity="0.7" d="M255.24 213.89V253.16L245.14 265.34H222.77V213.89H255.24Z" fill="white"/>
<path opacity="0.3" d="M255.24 253.16L245.14 265.34V253.16H255.24Z" fill="#66923F"/>
<path opacity="0.3" d="M250.21 221.31H227.81V222.78H250.21V221.31Z" fill="#66923F"/>
<path opacity="0.3" d="M250.21 226.89H227.81V228.36H250.21V226.89Z" fill="#66923F"/>
<path opacity="0.3" d="M250.21 232.48H227.81V233.96H250.21V232.48Z" fill="#66923F"/>
<path opacity="0.3" d="M250.21 238.07H227.81V239.55H250.21V238.07Z" fill="#66923F"/>
<path opacity="0.3" d="M244.42 243.66H227.81V245.13H244.42V243.66Z" fill="#66923F"/>
<path d="M306.74 213.89V253.16L296.64 265.34H274.27V213.89H306.74Z" fill="#66923F"/>
<path opacity="0.7" d="M306.74 213.89V253.16L296.64 265.34H274.27V213.89H306.74Z" fill="white"/>
<path opacity="0.3" d="M306.74 253.16L296.64 265.34V253.16H306.74Z" fill="#66923F"/>
<path opacity="0.3" d="M301.7 221.31H279.3V222.78H301.7V221.31Z" fill="#66923F"/>
<path opacity="0.3" d="M301.7 226.89H279.3V228.36H301.7V226.89Z" fill="#66923F"/>
<path opacity="0.3" d="M301.7 232.48H279.3V233.96H301.7V232.48Z" fill="#66923F"/>
<path opacity="0.3" d="M301.7 238.07H279.3V239.55H301.7V238.07Z" fill="#66923F"/>
<path opacity="0.3" d="M295.91 243.66H279.3V245.13H295.91V243.66Z" fill="#66923F"/>
<path d="M358.24 213.89V253.16L348.14 265.34H325.77V213.89H358.24Z" fill="#66923F"/>
<path opacity="0.7" d="M358.24 213.89V253.16L348.14 265.34H325.77V213.89H358.24Z" fill="white"/>
<path opacity="0.3" d="M358.24 253.16L348.14 265.34V253.16H358.24Z" fill="#66923F"/>
<path opacity="0.3" d="M353.2 221.31H330.8V222.78H353.2V221.31Z" fill="#66923F"/>
<path opacity="0.3" d="M353.2 226.89H330.8V228.36H353.2V226.89Z" fill="#66923F"/>
<path opacity="0.3" d="M353.2 232.48H330.8V233.96H353.2V232.48Z" fill="#66923F"/>
<path opacity="0.3" d="M353.2 238.07H330.8V239.55H353.2V238.07Z" fill="#66923F"/>
<path opacity="0.3" d="M347.41 243.66H330.8V245.13H347.41V243.66Z" fill="#66923F"/>
<path d="M409.74 213.89V253.16L399.63 265.34H377.27V213.89H409.74Z" fill="#66923F"/>
<path opacity="0.7" d="M409.74 213.89V253.16L399.63 265.34H377.27V213.89H409.74Z" fill="white"/>
<path opacity="0.3" d="M409.74 253.16L399.63 265.34V253.16H409.74Z" fill="#66923F"/>
<path opacity="0.3" d="M404.7 221.31H382.3V222.78H404.7V221.31Z" fill="#66923F"/>
<path opacity="0.3" d="M404.7 226.89H382.3V228.36H404.7V226.89Z" fill="#66923F"/>
<path opacity="0.3" d="M404.7 232.48H382.3V233.96H404.7V232.48Z" fill="#66923F"/>
<path opacity="0.3" d="M404.7 238.07H382.3V239.55H404.7V238.07Z" fill="#66923F"/>
<path opacity="0.3" d="M398.91 243.66H382.3V245.13H398.91V243.66Z" fill="#66923F"/>
<path opacity="0.1" d="M329.96 181.35H278.13C275.728 181.35 273.78 183.297 273.78 185.7V224.54C273.78 226.942 275.728 228.89 278.13 228.89H329.96C332.362 228.89 334.31 226.942 334.31 224.54V185.7C334.31 183.297 332.362 181.35 329.96 181.35Z" fill="black"/>
<g opacity="0.1">
<path d="M326.25 179.14H320.25V172.65C320.25 168.55 318.621 164.617 315.722 161.718C312.823 158.819 308.89 157.19 304.79 157.19C300.69 157.19 296.758 158.819 293.858 161.718C290.959 164.617 289.33 168.55 289.33 172.65V179.14H283.33V172.65C283.33 166.958 285.591 161.5 289.616 157.475C293.64 153.451 299.099 151.19 304.79 151.19C310.482 151.19 315.94 153.451 319.965 157.475C323.989 161.5 326.25 166.958 326.25 172.65V179.14Z" fill="black"/>
</g>
<path d="M304.96 179.35H253.13C250.728 179.35 248.78 181.297 248.78 183.7V222.54C248.78 224.942 250.728 226.89 253.13 226.89H304.96C307.362 226.89 309.31 224.942 309.31 222.54V183.7C309.31 181.297 307.362 179.35 304.96 179.35Z" fill="#263238"/>
<path opacity="0.2" d="M294.01 179.35H253.13C250.728 179.35 248.78 181.297 248.78 183.7V222.54C248.78 224.942 250.728 226.89 253.13 226.89H294.01C296.412 226.89 298.36 224.942 298.36 222.54V183.7C298.36 181.297 296.412 179.35 294.01 179.35Z" fill="white"/>
<path d="M276.61 197.19C276.61 193.91 274.61 191.25 272.15 191.25C269.69 191.25 267.7 193.91 267.7 197.19C267.641 198.271 267.867 199.349 268.357 200.314C268.847 201.28 269.583 202.099 270.49 202.69L269.66 215.09H274.66L273.84 202.69C274.742 202.095 275.473 201.275 275.959 200.31C276.445 199.345 276.67 198.269 276.61 197.19Z" fill="#263238"/>
<path d="M301.25 177.14H295.25V170.65C295.25 166.55 293.621 162.617 290.722 159.718C287.823 156.819 283.89 155.19 279.79 155.19C275.69 155.19 271.758 156.819 268.858 159.718C265.959 162.617 264.33 166.55 264.33 170.65V177.14H258.33V170.65C258.33 164.958 260.591 159.5 264.616 155.475C268.64 151.451 274.099 149.19 279.79 149.19C285.482 149.19 290.94 151.451 294.965 155.475C298.989 159.5 301.25 164.958 301.25 170.65V177.14Z" fill="#263238"/>
<g opacity="0.4">
<path d="M301.25 177.14H295.25V170.65C295.25 166.55 293.621 162.617 290.722 159.718C287.823 156.819 283.89 155.19 279.79 155.19C275.69 155.19 271.758 156.819 268.858 159.718C265.959 162.617 264.33 166.55 264.33 170.65V177.14H258.33V170.65C258.33 164.958 260.591 159.5 264.616 155.475C268.64 151.451 274.099 149.19 279.79 149.19C285.482 149.19 290.94 151.451 294.965 155.475C298.989 159.5 301.25 164.958 301.25 170.65V177.14Z" fill="white"/>
</g>
<path opacity="0.2" d="M301.25 170.65V177.14H297.18V169.91C297.18 167.335 296.673 164.786 295.687 162.407C294.702 160.028 293.257 157.867 291.436 156.047C289.615 154.227 287.453 152.783 285.074 151.799C282.695 150.815 280.145 150.309 277.57 150.31C273.635 150.297 269.793 151.503 266.57 153.76C269.735 151.278 273.535 149.736 277.535 149.311C281.535 148.886 285.574 149.595 289.19 151.357C292.806 153.118 295.854 155.862 297.985 159.273C300.115 162.685 301.244 166.627 301.24 170.65H301.25Z" fill="white"/>
<path d="M216.46 285.63H192.22V284.7H197.69C198.058 284.696 198.413 284.565 198.694 284.327C198.975 284.09 199.165 283.762 199.23 283.4L201.68 268.82L202.16 265.95H210.46L217.89 283.47C217.991 283.706 218.032 283.964 218.009 284.219C217.986 284.475 217.899 284.721 217.757 284.936C217.616 285.15 217.423 285.325 217.196 285.447C216.97 285.568 216.717 285.631 216.46 285.63Z" fill="#66923F"/>
<path opacity="0.4" d="M216.46 285.63H192.22V284.7H197.69C198.058 284.696 198.413 284.565 198.694 284.327C198.975 284.09 199.165 283.762 199.23 283.4L201.68 268.82L202.16 265.95H210.46L217.89 283.47C217.991 283.706 218.032 283.964 218.009 284.219C217.986 284.475 217.899 284.721 217.757 284.936C217.616 285.15 217.423 285.325 217.196 285.447C216.97 285.568 216.717 285.631 216.46 285.63Z" fill="white"/>
<path opacity="0.2" d="M216.49 284.7H197.69C198.058 284.697 198.413 284.565 198.694 284.327C198.975 284.09 199.165 283.762 199.23 283.4L201.68 268.82H210.38L217 283.93C217.037 284.014 217.052 284.106 217.044 284.198C217.036 284.289 217.005 284.377 216.954 284.454C216.904 284.53 216.835 284.593 216.754 284.636C216.672 284.679 216.582 284.701 216.49 284.7Z" fill="black"/>
<path d="M229.49 271.32H181C180.89 271.325 180.78 271.304 180.679 271.259C180.578 271.214 180.49 271.146 180.42 271.06C180.35 270.975 180.301 270.874 180.277 270.767C180.252 270.659 180.254 270.547 180.28 270.44L187.18 234C187.231 233.766 187.355 233.554 187.535 233.395C187.715 233.237 187.941 233.14 188.18 233.12H236.66C236.77 233.115 236.88 233.135 236.98 233.181C237.081 233.226 237.169 233.294 237.239 233.38C237.308 233.465 237.356 233.566 237.379 233.674C237.401 233.782 237.399 233.894 237.37 234L230.49 270.43C230.441 270.666 230.318 270.88 230.138 271.041C229.958 271.201 229.73 271.299 229.49 271.32Z" fill="#66923F"/>
<path opacity="0.4" d="M229.49 271.32H181C180.89 271.325 180.78 271.304 180.679 271.259C180.578 271.214 180.49 271.146 180.42 271.06C180.35 270.975 180.301 270.874 180.277 270.767C180.252 270.659 180.254 270.547 180.28 270.44L187.18 234C187.231 233.766 187.355 233.554 187.535 233.395C187.715 233.237 187.941 233.14 188.18 233.12H236.66C236.77 233.115 236.88 233.135 236.98 233.181C237.081 233.226 237.169 233.294 237.239 233.38C237.308 233.465 237.356 233.566 237.379 233.674C237.401 233.782 237.399 233.894 237.37 234L230.49 270.43C230.441 270.666 230.318 270.88 230.138 271.041C229.958 271.201 229.73 271.299 229.49 271.32Z" fill="white"/>
<path d="M228.49 271.32H180C179.89 271.325 179.78 271.304 179.679 271.259C179.578 271.214 179.49 271.146 179.42 271.06C179.35 270.975 179.301 270.874 179.277 270.767C179.252 270.659 179.254 270.547 179.28 270.44L186.18 234C186.231 233.766 186.355 233.554 186.535 233.395C186.715 233.237 186.941 233.14 187.18 233.12H235.66C235.77 233.115 235.88 233.135 235.98 233.181C236.081 233.226 236.169 233.294 236.239 233.38C236.308 233.465 236.356 233.566 236.379 233.674C236.401 233.782 236.399 233.894 236.37 234L229.49 270.43C229.441 270.666 229.318 270.88 229.138 271.041C228.958 271.201 228.73 271.299 228.49 271.32Z" fill="#263238"/>
<path d="M227.85 269.08H181.49L187.87 235.37H234.22L227.85 269.08Z" fill="#66923F"/>
<path d="M147.05 285.63V284.49L165.71 280.72H202.22C202.87 280.72 203.493 280.978 203.952 281.438C204.412 281.897 204.67 282.52 204.67 283.17C204.67 283.821 204.412 284.445 203.953 284.906C203.494 285.367 202.871 285.627 202.22 285.63H147.05Z" fill="#66923F"/>
<path opacity="0.4" d="M204.67 283.18C204.671 283.828 204.416 284.45 203.96 284.91C203.497 285.369 202.872 285.628 202.22 285.63H147.05V284.5L165.72 280.72H202.22C202.543 280.72 202.862 280.784 203.16 280.907C203.458 281.031 203.728 281.213 203.956 281.441C204.184 281.67 204.364 281.941 204.486 282.239C204.609 282.538 204.671 282.857 204.67 283.18Z" fill="white"/>
<path opacity="0.4" d="M204.67 283.18C204.671 283.828 204.416 284.45 203.96 284.91C203.497 285.369 202.872 285.628 202.22 285.63H180.05V284.5L198.72 280.72H202.22C202.543 280.72 202.862 280.784 203.16 280.907C203.458 281.031 203.728 281.213 203.956 281.441C204.184 281.67 204.364 281.941 204.486 282.239C204.609 282.538 204.671 282.857 204.67 283.18Z" fill="white"/>
<path d="M218.01 416.42H223.01L231.98 291.48H225.35L218.01 416.42Z" fill="#263238"/>
<path opacity="0.1" d="M218.01 416.42H223.01L231.54 297.68L231.98 291.68H225.35L225 297.68L218.01 416.42Z" fill="white"/>
<path opacity="0.2" d="M225 297.38H231.54L231.98 291.68H225.35L225 297.38Z" fill="black"/>
<path d="M181.36 416.42H186.35L187.17 291.48H180.54L181.36 416.42Z" fill="#263238"/>
<path opacity="0.1" d="M180.54 291.68L180.67 311.84L181.35 416.42H186.35L187.03 311.84L187.16 291.68H180.54Z" fill="white"/>
<path opacity="0.2" d="M180.54 291.68L180.67 312.06H187.03L187.16 291.68H180.54Z" fill="black"/>
<path d="M128.33 416.42H133.32L142.3 291.48H135.67L128.33 416.42Z" fill="#263238"/>
<path opacity="0.1" d="M128.32 416.42H133.32L141.86 297.68L142.3 291.68H135.67L135.31 297.68L128.32 416.42Z" fill="white"/>
<path opacity="0.2" d="M135.31 297.38H141.86L142.3 291.68H135.67L135.31 297.38Z" fill="black"/>
<path d="M275.15 416.42H280.14L272.8 291.48H266.18L275.15 416.42Z" fill="#263238"/>
<path opacity="0.1" d="M266.18 291.68L266.62 297.68L275.15 416.42H280.14L273.16 297.68L272.8 291.68H266.18Z" fill="white"/>
<path opacity="0.2" d="M272.8 291.68H266.18L266.62 297.38H273.16L272.8 291.68Z" fill="black"/>
<path d="M275.89 294.6H132.58C132.296 294.6 132.016 294.544 131.753 294.435C131.491 294.327 131.253 294.168 131.053 293.967C130.852 293.767 130.693 293.529 130.584 293.266C130.476 293.004 130.42 292.724 130.42 292.44V288.34H278.05V292.44C278.05 292.724 277.994 293.004 277.886 293.266C277.777 293.529 277.618 293.767 277.417 293.967C277.217 294.168 276.979 294.327 276.717 294.435C276.455 294.544 276.174 294.6 275.89 294.6Z" fill="#66923F"/>
<path opacity="0.4" d="M275.89 294.6H132.58C132.296 294.6 132.016 294.544 131.753 294.435C131.491 294.327 131.253 294.168 131.053 293.967C130.852 293.767 130.693 293.529 130.584 293.266C130.476 293.004 130.42 292.724 130.42 292.44V288.34H278.05V292.44C278.05 292.724 277.994 293.004 277.886 293.266C277.777 293.529 277.618 293.767 277.417 293.967C277.217 294.168 276.979 294.327 276.717 294.435C276.455 294.544 276.174 294.6 275.89 294.6Z" fill="white"/>
<path opacity="0.2" d="M130.41 291.47H278.05V288.34H130.41V291.47Z" fill="black"/>
<path d="M127.32 289.16H281.15C281.617 289.16 282.064 288.974 282.395 288.644C282.725 288.314 282.91 287.867 282.91 287.4C282.91 286.933 282.725 286.485 282.395 286.155C282.064 285.825 281.617 285.64 281.15 285.64H127.32C126.853 285.64 126.406 285.825 126.076 286.155C125.745 286.485 125.56 286.933 125.56 287.4C125.56 287.867 125.745 288.314 126.076 288.644C126.406 288.974 126.853 289.16 127.32 289.16Z" fill="#66923F"/>
<path opacity="0.4" d="M127.32 289.16H281.15C281.617 289.16 282.064 288.974 282.395 288.644C282.725 288.314 282.91 287.867 282.91 287.4C282.91 286.933 282.725 286.485 282.395 286.155C282.064 285.825 281.617 285.64 281.15 285.64H127.32C126.853 285.64 126.406 285.825 126.076 286.155C125.745 286.485 125.56 286.933 125.56 287.4C125.56 287.867 125.745 288.314 126.076 288.644C126.406 288.974 126.853 289.16 127.32 289.16Z" fill="white"/>
<path opacity="0.3" d="M190.44 254.26C190.22 254.258 190.004 254.208 189.806 254.113C189.608 254.018 189.433 253.881 189.294 253.711C189.155 253.542 189.054 253.343 189 253.131C188.946 252.918 188.939 252.696 188.98 252.48L189.6 249.29C189.687 248.855 189.922 248.463 190.264 248.181C190.607 247.898 191.036 247.743 191.48 247.74H217.48C217.701 247.739 217.919 247.789 218.118 247.884C218.317 247.979 218.492 248.118 218.63 248.29C218.772 248.458 218.874 248.656 218.928 248.869C218.981 249.082 218.986 249.305 218.94 249.52L218.32 252.71C218.236 253.145 218.004 253.538 217.663 253.821C217.322 254.103 216.893 254.259 216.45 254.26H190.44Z" fill="white"/>
<path d="M216.45 253.76H190.45C190.302 253.762 190.155 253.732 190.021 253.671C189.886 253.61 189.766 253.519 189.671 253.407C189.575 253.294 189.506 253.161 189.467 253.018C189.429 252.875 189.423 252.725 189.45 252.58L190.08 249.38C190.141 249.059 190.312 248.769 190.564 248.561C190.816 248.352 191.133 248.239 191.46 248.24H217.46C217.608 248.237 217.755 248.268 217.889 248.329C218.024 248.39 218.144 248.48 218.239 248.593C218.335 248.706 218.404 248.839 218.442 248.982C218.481 249.125 218.487 249.274 218.46 249.42L217.84 252.62C217.777 252.942 217.604 253.232 217.35 253.44C217.096 253.648 216.778 253.761 216.45 253.76Z" fill="white"/>
<path d="M194.847 251.744C195.357 251.015 195.301 250.096 194.721 249.691C194.142 249.286 193.259 249.548 192.75 250.276C192.24 251.005 192.297 251.924 192.876 252.329C193.455 252.735 194.338 252.472 194.847 251.744Z" fill="#263238"/>
<path d="M199.23 251C199.159 251.4 198.957 251.764 198.657 252.037C198.357 252.31 197.975 252.477 197.57 252.51C197.391 252.504 197.215 252.457 197.057 252.373C196.899 252.288 196.763 252.168 196.659 252.021C196.556 251.875 196.487 251.707 196.46 251.529C196.432 251.352 196.446 251.171 196.5 251C196.573 250.601 196.775 250.237 197.075 249.965C197.375 249.692 197.756 249.525 198.16 249.49C198.34 249.493 198.517 249.539 198.676 249.623C198.835 249.708 198.972 249.828 199.076 249.975C199.18 250.122 199.248 250.291 199.275 250.469C199.302 250.647 199.286 250.829 199.23 251Z" fill="#263238"/>
<path d="M203.3 251C203.227 251.399 203.025 251.763 202.725 252.035C202.425 252.308 202.044 252.475 201.64 252.51C201.46 252.506 201.283 252.46 201.124 252.376C200.965 252.292 200.827 252.172 200.722 252.025C200.618 251.879 200.548 251.71 200.52 251.532C200.492 251.354 200.506 251.172 200.56 251C200.635 250.6 200.839 250.236 201.141 249.964C201.442 249.691 201.825 249.525 202.23 249.49C202.409 249.496 202.585 249.543 202.743 249.627C202.901 249.712 203.037 249.832 203.141 249.979C203.244 250.125 203.313 250.293 203.34 250.471C203.368 250.648 203.354 250.829 203.3 251Z" fill="#263238"/>
<path d="M207.05 251.736C207.559 251.008 207.503 250.089 206.924 249.683C206.344 249.278 205.462 249.54 204.952 250.269C204.442 250.998 204.499 251.917 205.078 252.322C205.657 252.727 206.54 252.465 207.05 251.736Z" fill="#263238"/>
<path d="M211.43 251C211.355 251.4 211.151 251.764 210.849 252.036C210.548 252.309 210.165 252.475 209.76 252.51C209.581 252.504 209.405 252.457 209.247 252.373C209.089 252.288 208.953 252.168 208.849 252.021C208.746 251.875 208.677 251.707 208.65 251.529C208.622 251.352 208.636 251.171 208.69 251C208.765 250.602 208.967 250.239 209.267 249.966C209.566 249.694 209.947 249.527 210.35 249.49C210.53 249.494 210.707 249.54 210.866 249.624C211.025 249.708 211.163 249.828 211.268 249.975C211.372 250.121 211.442 250.29 211.47 250.468C211.498 250.646 211.484 250.828 211.43 251Z" fill="#263238"/>
<path d="M215.174 251.752C215.684 251.024 215.627 250.105 215.048 249.699C214.468 249.294 213.586 249.557 213.076 250.285C212.566 251.014 212.623 251.933 213.202 252.338C213.782 252.743 214.664 252.481 215.174 251.752Z" fill="#263238"/>
<path opacity="0.3" d="M220.08 254.26C219.912 254.262 219.746 254.226 219.593 254.155C219.441 254.084 219.307 253.98 219.2 253.85C219.086 253.713 219.006 253.551 218.966 253.377C218.926 253.204 218.928 253.023 218.97 252.85L219.76 248.85C219.83 248.522 220.008 248.228 220.265 248.014C220.523 247.799 220.845 247.678 221.18 247.67H225.18C225.348 247.668 225.515 247.704 225.667 247.775C225.819 247.846 225.954 247.95 226.06 248.08C226.174 248.217 226.254 248.379 226.294 248.553C226.334 248.726 226.333 248.907 226.29 249.08L225.5 253.08C225.431 253.408 225.253 253.702 224.995 253.916C224.737 254.131 224.415 254.252 224.08 254.26H220.08Z" fill="white"/>
<path d="M220.08 253.76H224.08C224.295 253.749 224.5 253.669 224.666 253.532C224.831 253.395 224.949 253.209 225 253L225.79 249C225.815 248.906 225.818 248.808 225.798 248.713C225.778 248.618 225.737 248.53 225.676 248.454C225.616 248.378 225.539 248.317 225.451 248.277C225.363 248.236 225.267 248.217 225.17 248.22H221.17C220.951 248.23 220.741 248.312 220.573 248.453C220.405 248.594 220.288 248.786 220.24 249L219.45 253C219.428 253.093 219.428 253.19 219.45 253.283C219.472 253.376 219.516 253.462 219.577 253.536C219.638 253.61 219.715 253.668 219.802 253.707C219.889 253.746 219.984 253.764 220.08 253.76Z" fill="#263238"/>
<path d="M222.11 252.75C222.08 252.751 222.05 252.745 222.022 252.733C221.994 252.721 221.97 252.703 221.95 252.68C221.914 252.622 221.902 252.553 221.915 252.486C221.928 252.419 221.965 252.36 222.02 252.32L223.61 251L222.55 249.68C222.512 249.623 222.498 249.553 222.511 249.485C222.524 249.418 222.563 249.358 222.62 249.32C222.668 249.276 222.73 249.252 222.795 249.252C222.86 249.252 222.922 249.276 222.97 249.32L224.17 250.82C224.208 250.877 224.223 250.947 224.209 251.014C224.196 251.082 224.157 251.141 224.1 251.18L222.31 252.68C222.254 252.726 222.183 252.751 222.11 252.75Z" fill="#66923F"/>
<path d="M223.91 251.25H221.21C221.179 251.251 221.148 251.245 221.12 251.232C221.092 251.219 221.067 251.199 221.048 251.175C221.028 251.151 221.015 251.122 221.008 251.092C221.002 251.061 221.002 251.03 221.01 251C221.025 250.931 221.063 250.869 221.117 250.824C221.172 250.779 221.239 250.753 221.31 250.75H224C224.031 250.749 224.062 250.755 224.09 250.768C224.118 250.781 224.143 250.801 224.163 250.825C224.182 250.849 224.195 250.878 224.202 250.908C224.208 250.938 224.208 250.97 224.2 251C224.185 251.067 224.149 251.128 224.097 251.173C224.044 251.218 223.979 251.245 223.91 251.25Z" fill="#66923F"/>
<path d="M136.27 190.2H157.83C160.105 190.2 161.95 188.355 161.95 186.08V164.52C161.95 162.245 160.105 160.4 157.83 160.4H136.27C133.995 160.4 132.15 162.245 132.15 164.52V186.08C132.15 188.355 133.995 190.2 136.27 190.2Z" fill="#66923F"/>
<path d="M144.72 189.08L147.05 199.1L149.38 189.08H144.72Z" fill="#66923F"/>
<path opacity="0.3" d="M146.79 184.23C144.254 182.718 142.137 180.596 140.631 178.056C139.125 175.516 138.279 172.64 138.17 169.69V169.37L147.04 165.59L155.9 169.37V169.69C155.797 172.641 154.955 175.518 153.45 178.059C151.946 180.599 149.828 182.721 147.29 184.23L147.03 184.39L146.79 184.23Z" fill="white"/>
<path opacity="0.6" d="M147.05 166.14L155.42 169.7C155.328 172.567 154.513 175.364 153.05 177.831C151.586 180.298 149.522 182.355 147.05 183.81V166.14Z" fill="white"/>
<path opacity="0.4" d="M147.05 166.14L138.67 169.7C138.762 172.568 139.579 175.366 141.045 177.833C142.51 180.3 144.576 182.356 147.05 183.81V166.14Z" fill="white"/>
<path d="M139 279.11L146 280.16C147.589 279.655 149.224 279.303 150.88 279.11C152.677 278.962 154.483 278.962 156.28 279.11C156.28 279.11 159.45 280.3 159.45 283.33C159.45 283.33 152.06 285.33 149.23 284.12L139 283.33V279.11Z" fill="#E4897B"/>
<path opacity="0.2" d="M139 279.11L146 280.16C147.589 279.655 149.224 279.303 150.88 279.11C152.677 278.962 154.483 278.962 156.28 279.11C156.28 279.11 159.45 280.3 159.45 283.33C159.45 283.33 152.06 285.33 149.23 284.12L139 283.33V279.11Z" fill="black"/>
<path d="M156.34 231.84C156.449 233.279 156.731 234.699 157.18 236.07C156.813 236.296 156.391 236.415 155.96 236.415C155.529 236.415 155.107 236.296 154.74 236.07L156.34 231.84Z" fill="#AA473D"/>
<path d="M159.07 229.84C158.8 230.49 158.32 230.91 157.99 230.77C157.66 230.63 157.63 230.01 157.89 229.36C158.15 228.71 158.64 228.3 158.97 228.43C159.3 228.56 159.33 229.2 159.07 229.84Z" fill="#263238"/>
<path d="M160.71 227.6C160.651 227.618 160.589 227.618 160.53 227.6C159.998 227.288 159.403 227.099 158.789 227.047C158.175 226.995 157.556 227.081 156.98 227.3C156.894 227.344 156.794 227.352 156.702 227.322C156.61 227.292 156.534 227.226 156.49 227.14C156.446 227.054 156.438 226.954 156.468 226.862C156.498 226.77 156.564 226.694 156.65 226.65C157.335 226.371 158.076 226.256 158.814 226.313C159.552 226.37 160.266 226.599 160.9 226.98C160.941 227.005 160.977 227.037 161.005 227.076C161.033 227.115 161.054 227.158 161.065 227.205C161.076 227.252 161.078 227.3 161.07 227.347C161.062 227.394 161.045 227.44 161.02 227.48C160.983 227.525 160.935 227.56 160.881 227.581C160.826 227.602 160.768 227.608 160.71 227.6Z" fill="#263238"/>
<path d="M154.39 237.28C154.16 237.56 153.93 237.83 153.68 238.08C152.28 239.535 150.469 240.529 148.49 240.93C147.989 241.032 147.481 241.099 146.97 241.13C145.625 241.214 144.279 240.997 143.028 240.496C141.777 239.994 140.654 239.22 139.74 238.23C138.915 237.334 138.282 236.279 137.88 235.13C136.09 230.33 137.88 226.55 140.47 219.9C141.046 218.341 142.01 216.955 143.272 215.873C144.533 214.791 146.05 214.05 147.679 213.718C149.307 213.387 150.993 213.476 152.577 213.979C154.161 214.482 155.591 215.38 156.73 216.59C161.91 222.05 158.43 232.08 154.39 237.28Z" fill="#E4897B"/>
<path opacity="0.2" d="M148.49 240.93C147.989 241.032 147.481 241.099 146.97 241.13C145.625 241.214 144.278 240.997 143.028 240.496C141.777 239.994 140.654 239.22 139.74 238.23C140.382 237.584 141.105 237.023 141.89 236.56C144.465 237.352 146.756 238.869 148.49 240.93Z" fill="black"/>
<path d="M126.93 241.18C127.59 245.86 137.83 247.61 137.83 247.61C137.83 247.61 142.83 249.91 143.09 247.91C141 245.49 140.77 243.38 141.49 241.53C141.968 240.402 142.668 239.381 143.55 238.53C144.02 238.042 144.517 237.581 145.04 237.15L141.91 224.33C139.66 229.23 132 240.48 126.93 241.18Z" fill="#E4897B"/>
<path d="M156.15 213C156.15 213 158.34 212.73 160.02 216.81C161.43 220.24 158.1 220.99 158.25 224.64C158.4 228.29 155.05 230.32 155.05 230.32C155.05 230.32 152.25 232.74 149.86 231.43C149.86 231.43 146.74 232.96 145.92 235.63C145.1 238.3 140.27 233.48 135.92 234.21C135.92 234.21 132.98 231.46 133.2 224.78C133.366 221.879 134.079 219.036 135.3 216.4C135.877 215.004 136.725 213.737 137.797 212.673C138.868 211.608 140.141 210.768 141.54 210.2C146.51 207.94 155.22 209.62 156.15 213Z" fill="#263238"/>
<path d="M149.26 229.42C149.109 230.086 149.108 230.776 149.256 231.442C149.405 232.108 149.7 232.732 150.12 233.27C151.18 234.43 152.89 232.96 153.58 230.93C154.18 229.12 154.39 226.29 152.83 225.93C151.27 225.57 149.59 227.47 149.26 229.42Z" fill="#E4897B"/>
<path d="M150.36 245.05C148.927 249.05 147.647 252.884 146.52 256.55C145.8 258.83 145.14 261.06 144.52 263.21C144.013 265.017 143.54 266.77 143.1 268.47C142.89 269.29 142.68 270.1 142.48 270.9C141.38 275.31 140.48 279.33 139.79 282.9C138.625 288.473 137.76 294.104 137.2 299.77L98 294.83C99.36 288.09 100.42 282.2 101.9 275.83C102.72 272.35 103.65 268.73 104.9 264.76C105.74 261.91 106.72 258.88 107.9 255.59C111.84 244.29 115.47 241.16 115.47 241.16C130.46 238.76 150.36 245.05 150.36 245.05Z" fill="#263238"/>
<path d="M163.41 279.84L170.41 280.89C171.999 280.385 173.633 280.033 175.29 279.84C177.09 279.692 178.9 279.692 180.7 279.84C180.7 279.84 183.86 281.03 183.86 284.06C183.86 284.06 176.48 286.06 173.64 284.85L163.42 284.06L163.41 279.84Z" fill="#E4897B"/>
<path d="M120.08 409.11L127.39 409.24L131.03 392.39L123.73 392.26L120.08 409.11Z" fill="#EBB376"/>
<path opacity="0.2" d="M123.73 392.26L131.03 392.4L128.95 402.03L121.72 401.55L123.73 392.26Z" fill="black"/>
<path d="M143.57 367.85C140.785 378.574 137.225 389.081 132.92 399.29L119.59 398.29C119.59 398.29 125.06 376.92 127.04 357.34C128.27 345.26 128.16 335.26 124.62 334.49C122.4 334 117.19 334.01 110.51 334.17V309.27C129.24 313.12 147.88 320.37 149.3 326.19C151.28 334.38 147.82 351.72 143.57 367.85Z" fill="#66923F"/>
<path d="M118.17 398.89L134.05 399.95L136.39 393.08L118.89 392.27L118.17 398.89Z" fill="#66923F"/>
<path opacity="0.2" d="M118.17 398.89L134.05 399.95L136.39 393.08L118.89 392.27L118.17 398.89Z" fill="white"/>
<path d="M128.49 408.88H128.64C128.64 408.88 128.81 408.93 128.83 408.95H128.89C129.508 409.146 130.145 409.273 130.79 409.33C131.271 409.42 131.768 409.323 132.18 409.06C132.311 408.946 132.406 408.797 132.454 408.63C132.502 408.463 132.5 408.286 132.45 408.12C132.434 408.012 132.392 407.909 132.328 407.82C132.263 407.731 132.178 407.659 132.08 407.61C131.389 407.5 130.682 407.634 130.08 407.99C130.51 407.536 130.765 406.945 130.8 406.32C130.771 406.173 130.694 406.038 130.583 405.938C130.471 405.837 130.33 405.774 130.18 405.76C129.896 405.718 129.606 405.786 129.37 405.95C128.6 406.61 128.48 408.68 128.48 408.8L128.49 408.88ZM129.28 408.46L129.13 408.54C129.083 407.75 129.297 406.966 129.74 406.31C129.788 406.262 129.846 406.224 129.91 406.2C129.974 406.176 130.042 406.166 130.11 406.17H130.2C130.44 406.17 130.49 406.33 130.5 406.43C130.346 407.23 129.913 407.949 129.28 408.46ZM129.38 408.82C130.26 408.33 131.51 407.82 131.98 408.01C132.027 408.035 132.067 408.07 132.096 408.114C132.126 408.157 132.144 408.208 132.15 408.26C132.179 408.365 132.18 408.476 132.152 408.582C132.124 408.688 132.068 408.784 131.99 408.86C131.63 409.18 130.67 409.16 129.38 408.82Z" fill="#66923F"/>
<path d="M128.32 408L120.13 407.49C119.994 407.476 119.857 407.516 119.75 407.603C119.644 407.689 119.575 407.814 119.56 407.95L118.76 414.4C118.738 414.739 118.851 415.073 119.073 415.33C119.296 415.586 119.611 415.744 119.95 415.77C122.81 415.9 124.18 415.82 127.78 416.02C130.975 416.349 134.19 416.449 137.4 416.32C140.4 416.03 140.07 413.02 138.76 412.88C135.63 412.52 131.5 410.23 129.54 408.49C129.2 408.194 128.77 408.021 128.32 408Z" fill="#263238"/>
<path opacity="0.2" d="M143.57 367.85C138.57 364.7 132.76 360.99 127.04 357.32C128.27 345.24 128.16 335.24 124.62 334.47C122.4 333.98 117.19 333.99 110.51 334.15V309.27C129.24 313.12 147.88 320.37 149.3 326.19C151.28 334.38 147.82 351.72 143.57 367.85Z" fill="black"/>
<path d="M162.81 409.11L170.12 409.24L173.76 392.39L166.46 392.26L162.81 409.11Z" fill="#EBB376"/>
<path opacity="0.2" d="M166.46 392.26L173.76 392.4L171.68 402.03L164.45 401.55L166.46 392.26Z" fill="black"/>
<path d="M136.27 306.83L137.45 297.39L99.28 291.1C99.28 291.1 86.79 315.84 92.9 328C98.51 339.12 158.17 332.49 167.35 334.5C176.53 336.51 162.35 398.31 162.35 398.31L175.69 399.31C175.69 399.31 196.29 343.71 192.06 326.22C190.18 318.57 158.73 308.46 136.27 306.83Z" fill="#66923F"/>
<path d="M160.9 398.89L176.78 399.95L179.12 393.08L161.62 392.27L160.9 398.89Z" fill="#66923F"/>
<path opacity="0.2" d="M160.9 398.89L176.78 399.95L179.12 393.08L161.62 392.27L160.9 398.89Z" fill="white"/>
<path d="M171.22 408.88H171.37C171.37 408.88 171.54 408.93 171.56 408.95H171.62C172.238 409.146 172.875 409.273 173.52 409.33C174.001 409.42 174.498 409.323 174.91 409.06C175.041 408.946 175.136 408.797 175.184 408.63C175.232 408.463 175.23 408.286 175.18 408.12C175.164 408.012 175.122 407.909 175.058 407.82C174.993 407.731 174.908 407.659 174.81 407.61C174.119 407.5 173.412 407.634 172.81 407.99C173.24 407.536 173.495 406.945 173.53 406.32C173.501 406.173 173.424 406.038 173.313 405.938C173.201 405.837 173.06 405.774 172.91 405.76C172.626 405.718 172.336 405.786 172.1 405.95C171.33 406.61 171.21 408.68 171.21 408.8L171.22 408.88ZM172.01 408.46L171.86 408.54C171.813 407.75 172.027 406.966 172.47 406.31C172.518 406.262 172.576 406.224 172.64 406.2C172.704 406.176 172.772 406.166 172.84 406.17H172.93C173.17 406.17 173.22 406.33 173.23 406.43C173.077 407.233 172.641 407.953 172 408.46H172.01ZM172.11 408.82C172.99 408.33 174.24 407.82 174.71 408.01C174.757 408.035 174.797 408.07 174.826 408.114C174.856 408.157 174.874 408.208 174.88 408.26C174.909 408.365 174.91 408.476 174.882 408.582C174.854 408.688 174.798 408.784 174.72 408.86C174.36 409.18 173.4 409.16 172.11 408.82Z" fill="#66923F"/>
<path d="M171.05 408L162.86 407.49C162.724 407.476 162.587 407.516 162.48 407.603C162.374 407.689 162.305 407.814 162.29 407.95L161.49 414.4C161.468 414.739 161.581 415.073 161.803 415.33C162.026 415.586 162.341 415.744 162.68 415.77C165.54 415.9 166.91 415.82 170.51 416.02C173.705 416.349 176.92 416.449 180.13 416.32C183.18 416.03 182.81 413.02 181.49 412.88C178.36 412.52 174.23 410.23 172.27 408.49C171.93 408.194 171.5 408.021 171.05 408Z" fill="#263238"/>
<path d="M97.8799 295.4L115.56 297.72L116.14 295.11L98.4199 292.53L97.8799 295.4Z" fill="black"/>
<path d="M117.61 295.13L117.39 297.72L133.74 299.97V297.4L117.61 295.13Z" fill="black"/>
<path d="M134.75 297.55V299.97L137.13 300.28V297.94L134.75 297.55Z" fill="black"/>
<path opacity="0.2" d="M146.52 256.55C145.8 258.83 145.14 261.06 144.52 263.21C144.013 265.017 143.54 266.77 143.1 268.47C141.87 261.77 144.1 253.77 144.1 253.77L146.52 256.55Z" fill="black"/>
<path d="M150.36 245C153.55 245.65 154.6 270.44 154.74 273.08C154.88 275.72 170.4 280.85 170.4 280.85V284.46C170.4 284.46 153.76 283.3 149.87 281.71C145.98 280.12 145 257.16 145 257.16L150.36 245Z" fill="#E4897B"/>
<path d="M150.36 245C153.29 245.91 154.74 262.26 154.74 262.26L145.68 266L143.43 256.91C143.43 256.91 142.79 255.06 144.05 251.16C145.88 245.47 150.36 245 150.36 245Z" fill="#263238"/>
<path d="M82.7801 326.52H155C157.098 326.52 159.11 327.353 160.593 328.837C162.077 330.32 162.91 332.332 162.91 334.43V338.66H74.8701V334.43C74.8701 332.332 75.7035 330.32 77.1869 328.837C78.6703 327.353 80.6823 326.52 82.7801 326.52Z" fill="#66923F"/>
<path d="M106.27 296.45H154.76C155.344 296.45 155.921 296.582 156.448 296.836C156.974 297.09 157.436 297.46 157.8 297.917C158.163 298.375 158.418 298.909 158.547 299.479C158.675 300.049 158.673 300.641 158.54 301.21L149.87 338.66H147.87L155.25 305.84C155.379 305.273 155.379 304.684 155.249 304.117C155.119 303.549 154.863 303.019 154.5 302.564C154.137 302.11 153.676 301.743 153.151 301.491C152.626 301.239 152.052 301.109 151.47 301.11H107.26L106.27 296.45Z" fill="#263238"/>
<path d="M124.63 340V371.65C124.63 372.138 124.436 372.606 124.091 372.951C123.746 373.296 123.278 373.49 122.79 373.49H115C114.512 373.49 114.044 373.296 113.699 372.951C113.354 372.606 113.16 372.138 113.16 371.65V340H124.63Z" fill="#263238"/>
<path d="M81.7901 413.06C81.7901 412.396 81.593 411.746 81.2238 411.193C80.8546 410.641 80.3298 410.21 79.7159 409.956C79.1019 409.702 78.4263 409.635 77.7746 409.765C77.1228 409.894 76.5241 410.214 76.0542 410.684C75.5843 411.154 75.2643 411.753 75.1346 412.405C75.005 413.056 75.0715 413.732 75.3258 414.346C75.5801 414.96 76.0108 415.485 76.5634 415.854C77.1159 416.223 77.7655 416.42 78.4301 416.42C79.3212 416.42 80.1758 416.066 80.8059 415.436C81.4361 414.806 81.7901 413.951 81.7901 413.06Z" fill="#263238"/>
<path opacity="0.2" d="M80.11 413.06C80.11 412.728 80.0115 412.403 79.8269 412.127C79.6423 411.85 79.3799 411.635 79.0729 411.508C78.7659 411.381 78.4281 411.348 78.1023 411.412C77.7764 411.477 77.477 411.637 77.2421 411.872C77.0071 412.107 76.8471 412.406 76.7823 412.732C76.7175 413.058 76.7507 413.396 76.8779 413.703C77.005 414.01 77.2204 414.272 77.4966 414.457C77.7729 414.642 78.0977 414.74 78.43 414.74C78.8748 414.737 79.3006 414.56 79.615 414.245C79.9295 413.931 80.1074 413.505 80.11 413.06Z" fill="white"/>
<path d="M162.74 413.06C162.742 412.393 162.546 411.74 162.176 411.184C161.807 410.628 161.28 410.195 160.664 409.939C160.048 409.682 159.37 409.615 158.715 409.744C158.06 409.874 157.459 410.195 156.987 410.667C156.515 411.139 156.194 411.741 156.064 412.395C155.935 413.05 156.002 413.728 156.258 414.344C156.515 414.961 156.948 415.487 157.504 415.856C158.06 416.226 158.713 416.422 159.38 416.42C160.27 416.418 161.123 416.063 161.753 415.433C162.382 414.804 162.737 413.95 162.74 413.06Z" fill="#263238"/>
<path opacity="0.2" d="M161.06 413.06C161.06 412.728 160.962 412.403 160.777 412.127C160.592 411.85 160.33 411.635 160.023 411.508C159.716 411.381 159.378 411.348 159.052 411.412C158.727 411.477 158.427 411.637 158.192 411.872C157.957 412.107 157.797 412.406 157.732 412.732C157.668 413.058 157.701 413.396 157.828 413.703C157.955 414.01 158.171 414.272 158.447 414.457C158.723 414.642 159.048 414.74 159.38 414.74C159.825 414.737 160.251 414.56 160.565 414.245C160.88 413.931 161.058 413.505 161.06 413.06Z" fill="white"/>
<path d="M121.68 398.3V362.12H116.12V398.3C94.46 398.86 81.29 406.43 78.66 408.09C78.5047 408.182 78.3772 408.314 78.2909 408.473C78.2047 408.631 78.1629 408.81 78.17 408.99V411.99C78.1686 412.13 78.1951 412.269 78.2478 412.399C78.3004 412.529 78.3783 412.647 78.4769 412.746C78.5754 412.846 78.6927 412.925 78.822 412.978C78.9513 413.032 79.0899 413.06 79.23 413.06C79.4172 413.058 79.6006 413.008 79.7621 412.913C79.9235 412.818 80.0573 412.683 80.15 412.52L81.44 410.26C92.662 406.682 104.343 404.748 116.12 404.52V410.52C116.12 410.701 116.156 410.88 116.225 411.047C116.295 411.214 116.396 411.365 116.525 411.492C116.653 411.62 116.805 411.72 116.973 411.789C117.14 411.857 117.319 411.891 117.5 411.89H120.31C120.673 411.89 121.022 411.746 121.279 411.489C121.536 411.232 121.68 410.883 121.68 410.52V404.52C133.46 404.747 145.145 406.681 156.37 410.26L157.65 412.52C157.744 412.684 157.879 412.821 158.042 412.915C158.206 413.01 158.391 413.06 158.58 413.06C158.862 413.057 159.132 412.944 159.33 412.743C159.529 412.543 159.64 412.272 159.64 411.99V408.99C159.647 408.81 159.605 408.631 159.519 408.473C159.433 408.314 159.305 408.182 159.15 408.09C156.51 406.43 143.35 398.86 121.68 398.3Z" fill="#263238"/>
<path d="M120.73 409.69H117.08V416.42H120.73V409.69Z" fill="#263238"/>
<path opacity="0.2" d="M124.63 339.97H113.19V353.12H124.63V339.97Z" fill="black"/>
<path d="M165.35 336.71V340.49C165.35 340.744 165.3 340.996 165.202 341.231C165.105 341.466 164.961 341.679 164.781 341.858C164.601 342.038 164.387 342.18 164.152 342.276C163.916 342.372 163.664 342.421 163.41 342.42H74.41C74.1562 342.421 73.9046 342.372 73.6699 342.276C73.4351 342.179 73.2218 342.037 73.0423 341.858C72.8628 341.678 72.7207 341.465 72.6242 341.23C72.5277 340.995 72.4787 340.744 72.48 340.49V336.71C72.48 336.198 72.6833 335.707 73.0453 335.345C73.4072 334.983 73.8981 334.78 74.41 334.78H163.41C163.923 334.78 164.415 334.983 164.778 335.345C165.142 335.706 165.347 336.197 165.35 336.71Z" fill="#263238"/>
<path d="M124.4 338.66H72.47C72.47 338.66 56 311.22 56 265.88V249.23C56.0027 245.943 57.3102 242.792 59.6354 240.468C61.9606 238.145 65.113 236.84 68.4 236.84H90.4C93.6196 236.838 96.7133 238.09 99.026 240.33C101.339 242.57 102.689 245.622 102.79 248.84C103.42 272.24 106.86 322.83 124.4 338.66Z" fill="#263238"/>
<path opacity="0.2" d="M113 338.66H74.81C74.0879 338.663 73.379 338.467 72.7614 338.093C72.1438 337.719 71.6415 337.182 71.31 336.54C67.55 329.3 56 303.87 56 265.88V249.23C56 245.944 57.3054 242.793 59.6289 240.469C61.9525 238.145 65.104 236.84 68.39 236.84H87.39C90.6096 236.838 93.7033 238.09 96.016 240.33C98.3287 242.57 99.6787 245.622 99.78 248.84C100.35 269.71 103.15 312.32 116.25 332.45C116.646 333.047 116.874 333.739 116.911 334.454C116.948 335.169 116.793 335.881 116.461 336.516C116.128 337.15 115.632 337.684 115.023 338.061C114.415 338.438 113.716 338.645 113 338.66Z" fill="white"/>
<path opacity="0.2" d="M165.35 336.71V340.49C165.35 341.002 165.147 341.493 164.785 341.855C164.423 342.217 163.932 342.42 163.42 342.42H123.53C123.188 342.421 122.849 342.355 122.532 342.225C122.216 342.095 121.928 341.904 121.685 341.662C121.443 341.42 121.25 341.133 121.119 340.817C120.988 340.501 120.92 340.162 120.92 339.82V337.39C120.92 336.698 121.195 336.034 121.685 335.544C122.174 335.055 122.838 334.78 123.53 334.78H163.41C163.923 334.78 164.415 334.983 164.778 335.345C165.142 335.706 165.348 336.197 165.35 336.71Z" fill="black"/>
<path d="M72.4502 235.37L75.7502 231.05C75.7502 231.05 89.8402 231.69 90.1802 236.84C90.5202 241.99 72.4502 235.37 72.4502 235.37Z" fill="#66923F"/>
<path d="M63.1901 248.3C63.1901 248.3 64.0501 271.2 63.1901 330.3C63.1901 332.3 55.7301 332.22 55.1901 330.3C53.4001 323.57 55.1901 269.83 55.1901 269.83" fill="#66923F"/>
<path d="M55.3601 330.6L62.9501 330.86V334.65L55.3601 334.26V330.6Z" fill="#66923F"/>
<path opacity="0.2" d="M63.1901 248.3C63.1901 248.3 64.0501 271.2 63.1901 330.3C63.1901 332.3 55.7301 332.22 55.1901 330.3C53.4001 323.57 55.1901 269.83 55.1901 269.83" fill="white"/>
<path d="M51.6101 318.22C51.2001 307.32 49.7101 257.22 55.9701 240.62C55.9701 240.62 61.8601 233.14 81.7901 233.14C101.72 233.14 107.72 247.29 107.72 247.29C107.72 247.29 108.58 270.18 107.72 329.29C107.72 331.29 100.26 331.22 99.7201 329.29C97.9301 322.57 99.7201 268.82 99.7201 268.82L95.7201 317.72C95.7055 317.884 95.6576 318.043 95.5793 318.188C95.501 318.333 95.394 318.46 95.2648 318.562C95.1357 318.664 94.987 318.739 94.828 318.782C94.669 318.824 94.503 318.834 94.3401 318.81C88.0501 317.81 60.3401 313.92 53.0101 318.92C52.8773 319.006 52.7245 319.055 52.5669 319.063C52.4092 319.072 52.252 319.039 52.1108 318.969C51.9695 318.898 51.8491 318.792 51.7613 318.661C51.6735 318.529 51.6214 318.378 51.6101 318.22Z" fill="#66923F"/>
<path d="M99.8901 329.59L107.48 329.85V333.64L99.8901 333.25V329.59Z" fill="#66923F"/>
<path d="M94.7501 318.86L94.1501 322.86C94.1501 322.86 63.2201 316.12 53.2001 323.3L52.6001 318.87C52.6001 318.87 60.3401 311.73 94.7501 318.86Z" fill="#66923F"/>
<path opacity="0.4" d="M51.6101 318.22C51.2001 307.32 49.7101 257.22 55.9701 240.62C55.9701 240.62 61.8601 233.14 81.7901 233.14C101.72 233.14 107.72 247.29 107.72 247.29C107.72 247.29 108.58 270.18 107.72 329.29C107.72 331.29 100.26 331.22 99.7201 329.29C97.9301 322.57 99.7201 268.82 99.7201 268.82L95.7201 317.72C95.7055 317.884 95.6576 318.043 95.5793 318.188C95.501 318.333 95.394 318.46 95.2648 318.562C95.1357 318.664 94.987 318.739 94.828 318.782C94.669 318.824 94.503 318.834 94.3401 318.81C88.0501 317.81 60.3401 313.92 53.0101 318.92C52.8773 319.006 52.7245 319.055 52.5669 319.063C52.4092 319.072 52.252 319.039 52.1108 318.969C51.9695 318.898 51.8491 318.792 51.7613 318.661C51.6735 318.529 51.6214 318.378 51.6101 318.22Z" fill="white"/>
<path opacity="0.2" d="M99.7501 268.82C99.7501 268.82 100.19 253.3 107.75 247.29C107.72 247.29 98.3001 251.34 99.7501 268.82Z" fill="black"/>
<path opacity="0.2" d="M77.0701 234.93C77.0701 234.93 67.9701 239.93 66.5201 308.06C66.5201 308.06 62.5601 239.33 77.0701 234.93Z" fill="black"/>
</svg>
